<!-- <svg xmlns="http://www.w3.org/2000/svg" width="256" height="256"><g fill="none" fill-rule="evenodd"><circle fill="#2B2E3A" cx="128" cy="128" r="128"/><g fill="#9FEAF9" fill-rule="nonzero"><path d="M100.502 71.69c-26.005-4.736-46.567.221-54.762 14.415-6.115 10.592-4.367 24.635 4.24 39.646a2.667 2.667 0 1 0 4.626-2.653c-7.752-13.522-9.261-25.641-4.247-34.326 6.808-11.791 25.148-16.213 49.187-11.835a2.667 2.667 0 0 0 .956-5.247zm-36.999 72.307c10.515 11.555 24.176 22.394 39.756 31.388 37.723 21.78 77.883 27.601 97.675 14.106a2.667 2.667 0 1 0-3.005-4.406c-17.714 12.078-55.862 6.548-92.003-14.318-15.114-8.726-28.343-19.222-38.478-30.36a2.667 2.667 0 1 0-3.945 3.59z"/><path d="M194.62 140.753c17.028-20.116 22.973-40.348 14.795-54.512-6.017-10.423-18.738-15.926-35.645-16.146a2.667 2.667 0 0 0-.069 5.333c15.205.198 26.165 4.939 31.096 13.48 6.792 11.765 1.49 29.807-14.248 48.399a2.667 2.667 0 1 0 4.071 3.446zm-43.761-68.175c-15.396 3.299-31.784 9.749-47.522 18.835-38.942 22.483-64.345 55.636-60.817 79.675a2.667 2.667 0 1 0 5.277-.775c-3.133-21.344 20.947-52.769 58.207-74.281 15.267-8.815 31.135-15.06 45.972-18.239a2.667 2.667 0 1 0-1.117-5.215z"/><path d="M87.77 187.753c8.904 24.86 23.469 40.167 39.847 40.167 11.945 0 22.996-8.143 31.614-22.478a2.667 2.667 0 1 0-4.571-2.748c-7.745 12.883-17.258 19.892-27.043 19.892-13.605 0-26.596-13.652-34.825-36.63a2.667 2.667 0 1 0-5.021 1.797zm81.322-4.863c4.61-14.728 7.085-31.718 7.085-49.423 0-44.179-15.463-82.263-37.487-92.042a2.667 2.667 0 0 0-2.164 4.874c19.643 8.723 34.317 44.866 34.317 87.168 0 17.177-2.397 33.63-6.84 47.83a2.667 2.667 0 1 0 5.09 1.593zm50.224-2.612c0-7.049-5.714-12.763-12.763-12.763-7.049 0-12.763 5.714-12.763 12.763 0 7.049 5.714 12.763 12.763 12.763 7.049 0 12.763-5.714 12.763-12.763zm-5.333 0a7.43 7.43 0 1 1-14.86 0 7.43 7.43 0 0 1 14.86 0zM48.497 193.041c7.05 0 12.764-5.714 12.764-12.763 0-7.049-5.715-12.763-12.764-12.763-7.048 0-12.763 5.714-12.763 12.763 0 7.049 5.715 12.763 12.763 12.763zm0-5.333a7.43 7.43 0 1 1 0-14.86 7.43 7.43 0 0 1 0 14.86z"/><path d="M127.617 54.444c7.049 0 12.763-5.714 12.763-12.763 0-7.049-5.714-12.763-12.763-12.763-7.049 0-12.763 5.714-12.763 12.763 0 7.049 5.714 12.763 12.763 12.763zm0-5.333a7.43 7.43 0 1 1 0-14.86 7.43 7.43 0 0 1 0 14.86zm1.949 93.382c-4.985 1.077-9.896-2.091-10.975-7.076a9.236 9.236 0 0 1 7.076-10.976c4.985-1.077 9.896 2.091 10.976 7.076 1.077 4.985-2.091 9.897-7.077 10.976z"/></g></g></svg> -->
<svg xmlns="http://www.w3.org/2000/svg" width="256" height="256" viewBox="0 0 256 256" fill="none">
  <rect width="256" height="256" fill="white"/>
  <path d="M110.339 256H4.10669C3.518 256 3.14337 255.358 3.41096 254.823L31.6682 202.964C31.6682 202.964 32.0428 202.536 32.364 202.536H163.589C163.589 232.024 139.774 255.947 110.339 255.947V256Z" fill="#6D41D8"/>
  <path d="M201.319 161.008L252.589 254.343C252.856 254.878 252.482 255.52 251.893 255.52H193.291C193.024 255.52 192.756 255.359 192.596 255.092L128.91 139.655C154.812 125.579 187.244 135.106 201.265 160.955L201.319 161.008Z" fill="#6D41D8"/>
  <path d="M143.414 0.774429L136.831 12.7088C136.831 12.7088 136.724 13.244 136.831 13.4581L143.307 25.339C143.628 25.8742 144.377 25.8742 144.698 25.339L151.281 13.4046C151.281 13.4046 151.388 12.8694 151.281 12.6553L144.805 0.774429C144.484 0.239253 143.735 0.239253 143.414 0.774429Z" fill="#977BEF"/>
  <path d="M172.955 0.401382L158.88 25.9293C158.88 25.9293 158.773 26.4644 158.88 26.6785L165.837 39.4157C166.158 39.9508 166.908 39.9508 167.229 39.4157L181.304 13.8878C181.304 13.8878 181.411 13.3526 181.304 13.1386L174.347 0.401382C174.026 -0.133794 173.276 -0.133794 172.955 0.401382Z" fill="#977BEF"/>
  <path d="M159.309 54.614L166.212 67.2441C166.533 67.7793 167.283 67.7793 167.604 67.2441L174.186 55.3097C174.186 55.3097 174.293 54.7745 174.186 54.5604L167.229 41.8233C166.908 41.2881 166.159 41.2881 165.838 41.8233L159.309 53.8112C159.309 53.8112 159.202 54.3464 159.309 54.5604V54.614Z" fill="#977BEF"/>
  <path d="M136.457 96.198L143.361 108.828C143.682 109.363 144.431 109.363 144.752 108.828L158.934 83.3538C158.934 83.3538 159.041 82.8186 158.934 82.6046L151.924 69.9209C151.602 69.3857 150.853 69.3857 150.532 69.9209L136.457 95.4488C136.457 95.4488 136.35 95.984 136.457 96.198Z" fill="#977BEF"/>
  <path d="M140.845 58.8952L143.306 54.3997L150.531 41.0739L151.227 39.7894L144.002 26.5171L143.306 27.8015L136.617 39.843C136.296 40.3781 135.546 40.3781 135.225 39.843L129.178 28.9254C128.857 28.3902 128.107 28.3902 127.786 28.9254L113.658 54.3997V54.7208L115.103 57.3432L120.829 67.8326C120.829 67.8326 120.936 68.3678 120.829 68.5819L113.765 81.3726C113.765 81.3726 113.658 81.9078 113.765 82.1218L120.615 94.5914C120.615 94.5914 120.722 95.1266 120.615 95.3407L113.551 108.131C113.23 108.667 112.48 108.667 112.159 108.131L105.791 96.5181C105.791 96.5181 105.684 95.9829 105.791 95.7688L113.337 82.1218C113.337 82.1218 113.444 81.5867 113.337 81.3726L106.647 69.1706L105.951 68.1002L71.1112 131.09C56.9826 156.565 65.9735 188.622 91.2338 203.179C91.6084 203.393 92.1436 203.286 92.3577 202.857L136.189 123.919C136.189 123.919 136.296 123.384 136.189 123.17L128.857 109.79C128.857 109.79 128.75 109.255 128.857 109.041L135.867 96.1969C135.867 96.1969 135.974 95.6618 135.867 95.4477L128.428 81.8542C128.428 81.8542 128.321 81.3191 128.428 81.105L140.684 58.8952H140.845Z" fill="#6D41D8"/>
</svg>